<svg xmlns="http://www.w3.org/2000/svg" width="54.086" height="52.555" viewBox="0 0 54.086 52.555"><defs><style>.a{fill:#89b242;}</style></defs><g transform="translate(-106.482 -110.77)"><g transform="translate(106.482 110.77)"><path class="a" d="M133.122,163.324a26.3,26.3,0,0,1-10.821-2.37A26.937,26.937,0,0,1,110.647,151a26.436,26.436,0,0,1-3.022-21.968,25.548,25.548,0,0,1,14.169-16.141,26.385,26.385,0,0,1,22.909,1.05,2.077,2.077,0,0,1-2.009,3.637,22.157,22.157,0,0,0-19.235-.869,21.4,21.4,0,0,0-11.853,13.535,22.277,22.277,0,0,0,2.533,18.512,22.823,22.823,0,0,0,22.619,10.079,22.071,22.071,0,0,0,15.779-12.052,2.076,2.076,0,1,1,3.746,1.791,26.176,26.176,0,0,1-18.765,14.35A23.8,23.8,0,0,1,133.122,163.324Z" transform="translate(-106.482 -110.77)"/></g><g transform="translate(116.956 117.421)"><path class="a" d="M178.266,178.753a2.041,2.041,0,0,1-1.448-.6l-11.834-11.545a2.086,2.086,0,0,1,2.913-2.986l10.369,10.133,26.166-25.641a2.086,2.086,0,0,1,2.913,2.986l-27.614,27.053A2.052,2.052,0,0,1,178.266,178.753Z" transform="translate(-164.362 -147.525)"/></g></g></svg>