<svg xmlns="http://www.w3.org/2000/svg" xmlns:xlink="http://www.w3.org/1999/xlink" width="119.946" height="112.299" viewBox="0 0 119.946 112.299"><defs><style>.a,.g{fill:none;}.b{clip-path:url(#a);}.c{fill:#2b2e34;}.d{fill:#a3ce5b;}.e{fill:#bfe27f;}.f{fill:#89b242;}.g{stroke:#000;stroke-linecap:round;stroke-width:3px;}</style><clipPath id="a"><path class="a" d="M0-39.323H119.946v-112.3H0Z" transform="translate(0 151.622)"/></clipPath></defs><g transform="translate(0 151.622)"><g class="b" transform="translate(0 -151.622)"><g transform="translate(0 89.75)"><path class="c" d="M-1.375-6.7H2.184V-21.6c0-1.745-.6-2.388-2.158-2.388H-5.3v2.824h3.237c.551,0,.689.138.689.689ZM5.513-10.21H9.072V-22.471c0-1.1-.413-1.515-1.538-1.515H4.159v2.824h.827c.413,0,.528.092.528.505Zm4.891,0h4.11c1.561,0,2.158-.62,2.158-2.3v-9.23c0-1.63-.574-2.25-2.112-2.25H11.644v2.824h.8c.505,0,.666.138.666.689v6.613c0,.666-.161.827-.8.827H10.4Zm9.276-5.832h3.536V-22.2c0-1.309-.482-1.791-1.791-1.791H18.279v2.824h.872c.436,0,.528.092.528.505Zm17.243-7.944H24.915v2.824h1.309a3.506,3.506,0,0,0-.253,1.653v9.3H29.53v-9.919c0-.872.115-1.033.505-1.033H31.78c.436,0,.528.161.528,1.033v9.919h3.559v-9.3a3.506,3.506,0,0,0-.253-1.653h1.309ZM41.56-10.21H44.8v-2.824h-1.01c-.39,0-.436-.253-.321-.6l2.434-7.21c.62-1.883-.138-3.146-1.883-3.146H41.56v-1.837H38.208v3.972c0,.528.161.689.666.689H41.56c.505,0,.666.23.505.735l-2.25,6.98c-.666,2.089-.023,3.237,1.745,3.237m18.23-13.776H52.926v1.4h1.263a1.835,1.835,0,0,0-.321,1.217V-11.06c0,.6.253.85.85.85h6.107c.6,0,.85-.253.85-.85V-22.08c0-1.378-.528-1.906-1.883-1.906m.276,12.123a.253.253,0,0,1-.276.276H55.75a.253.253,0,0,1-.276-.276v-9.85c0-.643.23-.9.781-.9h3.031c.551,0,.781.253.781.9Zm5.647-4.523H67.3v-5.993c0-1.171-.436-1.607-1.607-1.607H63.969v1.4h1.217c.367,0,.528.138.528.505Zm12.031,4.225L77.4-20.588c-.115-2.64-1.309-3.4-3.054-3.4H69.8v1.4h1.447a2.641,2.641,0,0,0-.482,1.4L69.41-10.21h1.607L72.4-21.369c.115-.9.3-1.24,1.01-1.24h.712c1.033,0,1.584.436,1.653,2.112l.344,8.1c.023.528-.184.781-.735.781H72.854v1.4H75.77c1.424,0,2.021-.6,1.975-1.952m3.284-4.225h1.584v-5.993c0-1.171-.436-1.607-1.607-1.607H79.284v1.4H80.5c.367,0,.528.138.528.505Zm6.842,6.176h1.538v-1.4h-.85c-.39,0-.459-.23-.321-.6l3.49-9.276c.528-1.424,0-2.5-1.4-2.5H86.1v-1.837H84.519v2.48c0,.528.23.758.735.758h4.362c.505,0,.735.344.528.872l-3.513,9.368c-.482,1.286,0,2.135,1.24,2.135m14.695-13.776-.666,9.023c-.184,2.434-1.171,3.352-3.375,3.352h-1.63a.651.651,0,0,1-.758-.666l-.39-2.48A.728.728,0,0,1,96.3-15.7l2.3-.85a1.778,1.778,0,0,0,1.286-2v-5.442H98.3v5.258c0,.574-.092.827-.689,1.033l-1.309.459-1.033-6.75H93.657l1.125,7.393a1.643,1.643,0,0,0-.62,1.7l.39,2.939c.161,1.1.62,1.745,1.814,1.745H98.8c3.031,0,4.431-1.355,4.684-4.707l.666-9.069Zm12.076,11.825-.344-8.426c-.115-2.64-1.309-3.4-3.054-3.4H106.7v1.4h1.447a2.642,2.642,0,0,0-.482,1.4L106.307-10.21h1.607l1.378-11.159c.115-.9.3-1.24,1.01-1.24h.712c1.033,0,1.584.436,1.653,2.112l.344,8.1c.023.528-.184.781-.735.781h-2.526v1.4h2.916c1.424,0,2.021-.6,1.975-1.952" transform="translate(5.301 25.823)"/></g><g transform="translate(56.438 26.596)"><path class="d" d="M0-3.067A8.758,8.758,0,0,0,8.758,5.691a8.758,8.758,0,0,0,8.758-8.758,8.758,8.758,0,0,0-8.758-8.758A8.758,8.758,0,0,0,0-3.067" transform="translate(0 11.825)"/></g><g transform="translate(69.06 8.352)"><path class="e" d="M-5.045-2.523a7.2,7.2,0,0,1-7.2,7.2,7.2,7.2,0,0,1-7.2-7.2,7.2,7.2,0,0,1,7.2-7.2,7.2,7.2,0,0,1,7.2,7.2" transform="translate(19.453 9.727)"/></g><g transform="translate(80.917 26.597)"><path class="f" d="M-6.391-3.2A9.125,9.125,0,0,1-15.516,5.93,9.125,9.125,0,0,1-24.642-3.2a9.125,9.125,0,0,1,9.126-9.126A9.125,9.125,0,0,1-6.391-3.2" transform="translate(24.642 12.321)"/></g><g transform="translate(43.437 3.575)"><path class="f" d="M-6.094-3.047a8.7,8.7,0,0,1-8.7,8.7,8.7,8.7,0,0,1-8.7-8.7,8.7,8.7,0,0,1,8.7-8.7,8.7,8.7,0,0,1,8.7,8.7" transform="translate(23.497 11.748)"/></g><g transform="translate(43.465 47.508)"><path class="f" d="M-5.631-2.815a8.041,8.041,0,0,1-8.041,8.041,8.041,8.041,0,0,1-8.041-8.041,8.041,8.041,0,0,1,8.041-8.041A8.041,8.041,0,0,1-5.631-2.815" transform="translate(21.713 10.856)"/></g></g><g transform="translate(54.749 -90.44)"><path class="g" d="M0-9.7v-27.7" transform="translate(0 37.394)"/></g><g class="b" transform="translate(0 -151.622)"><g transform="translate(65.554 48.177)"><path class="e" d="M-7.506-3.753A10.718,10.718,0,0,1-18.224,6.965,10.718,10.718,0,0,1-28.943-3.753,10.718,10.718,0,0,1-18.224-14.471,10.718,10.718,0,0,1-7.506-3.753" transform="translate(28.943 14.471)"/></g><g transform="translate(54.749 45.714)"><path class="g" d="M0-11.373,13.578-24.951m18.664-8.185A10.718,10.718,0,0,1,21.523-22.418,10.718,10.718,0,0,1,10.8-33.136,10.718,10.718,0,0,1,21.523-43.854,10.718,10.718,0,0,1,32.241-33.136Z" transform="translate(0 43.854)"/></g><g transform="translate(30.325 67.077)"><path class="d" d="M-6.4-3.2a9.133,9.133,0,0,1-9.133,9.133A9.133,9.133,0,0,1-24.662-3.2a9.133,9.133,0,0,1,9.133-9.133A9.133,9.133,0,0,1-6.4-3.2" transform="translate(24.662 12.331)"/></g><g transform="translate(14.414 42.171)"><path class="e" d="M-7.774-3.887a11.1,11.1,0,0,1-11.1,11.1,11.1,11.1,0,0,1-11.1-11.1,11.1,11.1,0,0,1,11.1-11.1,11.1,11.1,0,0,1,11.1,11.1" transform="translate(29.976 14.988)"/></g><g transform="translate(30.325 45.045)"><path class="g" d="M-10.232-2.815a8.041,8.041,0,0,1-8.041,8.041,8.041,8.041,0,0,1-8.041-8.041,8.041,8.041,0,0,1,8.041-8.041A8.041,8.041,0,0,1-10.232-2.815ZM-21.188,17.847a9.133,9.133,0,0,1-9.133,9.133,9.133,9.133,0,0,1-9.133-9.133,9.133,9.133,0,0,1,9.133-9.133A9.133,9.133,0,0,1-21.188,17.847Z" transform="translate(39.454 10.856)"/></g><g transform="translate(35.592 27.094)"><path class="e" d="M-5.045-2.523a7.2,7.2,0,0,1-7.2,7.2,7.2,7.2,0,0,1-7.2-7.2,7.2,7.2,0,0,1,7.2-7.2,7.2,7.2,0,0,1,7.2,7.2" transform="translate(19.453 9.727)"/></g><g transform="translate(14.414 5.889)"><path class="g" d="M-7.774-15.729a11.1,11.1,0,0,1-11.1,11.1,11.1,11.1,0,0,1-11.1-11.1,11.1,11.1,0,0,1,11.1-11.1A11.1,11.1,0,0,1-7.774-15.729ZM12.048-33.647a8.758,8.758,0,0,0,8.758,8.758,8.758,8.758,0,0,0,8.758-8.758A8.758,8.758,0,0,0,20.806-42.4,8.758,8.758,0,0,0,12.048-33.647ZM5.611-34.7a7.2,7.2,0,0,1-7.2,7.2,7.2,7.2,0,0,1-7.2-7.2,7.2,7.2,0,0,1,7.2-7.2A7.2,7.2,0,0,1,5.611-34.7ZM39.078-53.445a7.2,7.2,0,0,1-7.2,7.2,7.2,7.2,0,0,1-7.2-7.2,7.2,7.2,0,0,1,7.2-7.2A7.2,7.2,0,0,1,39.078-53.445Z" transform="translate(29.976 60.649)"/></g><g transform="translate(13.719 18.314)"><path class="d" d="M-5.658-2.829A8.079,8.079,0,0,1-13.737,5.25a8.079,8.079,0,0,1-8.079-8.079,8.079,8.079,0,0,1,8.079-8.079A8.079,8.079,0,0,1-5.658-2.829" transform="translate(21.816 10.908)"/></g><g transform="translate(13.719 1.111)"><path class="g" d="M-29.921-11.257a9.125,9.125,0,0,1-9.126,9.126,9.125,9.125,0,0,1-9.126-9.126,9.125,9.125,0,0,1,9.126-9.126A9.125,9.125,0,0,1-29.921-11.257ZM-68.25-34.7a8.7,8.7,0,0,1-8.7,8.7,8.7,8.7,0,0,1-8.7-8.7,8.7,8.7,0,0,1,8.7-8.7A8.7,8.7,0,0,1-68.25-34.7ZM-99.212-20.585a8.079,8.079,0,0,1-8.079,8.079,8.08,8.08,0,0,1-8.08-8.079,8.079,8.079,0,0,1,8.08-8.079A8.079,8.079,0,0,1-99.212-20.585Z" transform="translate(115.371 43.404)"/></g><g transform="translate(41.863 111.188)"><path class="g" d="M-9.7,0h-27.7" transform="translate(37.394)"/></g></g></g></svg>