<svg xmlns="http://www.w3.org/2000/svg" xmlns:xlink="http://www.w3.org/1999/xlink" width="85.434" height="48.695" viewBox="0 0 85.434 48.695"><defs><style>.a,.d{fill:none;}.b{clip-path:url(#a);}.c{fill:#fff;}.d{stroke:#fff;stroke-linecap:round;stroke-width:3px;}</style><clipPath id="a"><path class="a" d="M0-43.61H85.434v-48.7H0Z" transform="translate(0 92.305)"/></clipPath></defs><g transform="translate(0 92.305)"><g class="b" transform="translate(0 -92.305)"><g transform="translate(0 32.634)"><path class="c" d="M-2.5-12.2H.03V-22.814c0-1.243-.425-1.7-1.537-1.7H-5.3V-22.5H-3c.392,0,.491.1.491.491ZM2.4-14.7H4.937v-8.733c0-.785-.294-1.079-1.1-1.079h-2.4V-22.5h.589c.294,0,.376.065.376.36Zm3.483,0H8.812c1.112,0,1.537-.442,1.537-1.635v-6.574c0-1.161-.409-1.6-1.5-1.6H6.768V-22.5h.572c.36,0,.474.1.474.491v4.71c0,.474-.114.589-.572.589H5.885Zm6.607-4.154h2.519v-4.383c0-.932-.343-1.276-1.276-1.276h-2.24V-22.5h.621c.311,0,.376.065.376.36Zm12.282-5.658H16.221V-22.5h.932a2.5,2.5,0,0,0-.18,1.177V-14.7h2.535v-7.065c0-.621.082-.736.36-.736h1.243c.311,0,.376.114.376.736V-14.7h2.535v-6.623a2.5,2.5,0,0,0-.18-1.177h.932Zm3.3,9.812h2.306v-2.012h-.72c-.278,0-.311-.18-.229-.425l1.734-5.135c.442-1.341-.1-2.24-1.341-2.24h-1.75v-1.308H25.689v2.829c0,.376.114.491.474.491h1.913c.36,0,.474.164.36.523l-1.6,4.972c-.474,1.488-.016,2.306,1.243,2.306m12.985-9.812h-4.89v1h.9a1.307,1.307,0,0,0-.229.867v7.343c0,.425.18.605.605.605H41.8c.425,0,.605-.18.605-.605v-7.85c0-.981-.376-1.357-1.341-1.357m.2,8.635a.18.18,0,0,1-.2.2H38.184a.18.18,0,0,1-.2-.2V-22.9c0-.458.164-.638.556-.638H40.7c.392,0,.556.18.556.638ZM45.281-19.1h1.128V-23.37c0-.834-.311-1.145-1.145-1.145H44.038v1H44.9c.262,0,.376.1.376.36Zm8.569,3.009-.245-6c-.082-1.881-.932-2.42-2.175-2.42H48.192v1h1.03a1.881,1.881,0,0,0-.343,1L47.914-14.7h1.145l.981-7.948c.082-.638.213-.883.719-.883h.507c.736,0,1.128.311,1.177,1.5l.245,5.773c.016.376-.131.556-.523.556h-1.8v1h2.077c1.014,0,1.439-.425,1.406-1.39M56.189-19.1h1.128V-23.37c0-.834-.311-1.145-1.145-1.145H54.946v1h.867c.262,0,.376.1.376.36Zm4.873,4.4h1.1v-1h-.605c-.278,0-.327-.164-.229-.425l2.486-6.607c.376-1.014,0-1.783-1-1.783H59.8v-1.308H58.675v1.766c0,.376.164.54.523.54h3.107c.36,0,.523.245.376.621l-2.5,6.672c-.343.916,0,1.521.883,1.521m10.467-9.812-.474,6.427c-.131,1.734-.834,2.388-2.4,2.388H67.49a.464.464,0,0,1-.54-.474l-.278-1.766a.519.519,0,0,1,.393-.671l1.635-.605a1.267,1.267,0,0,0,.916-1.423v-3.876H68.487v3.745c0,.409-.065.589-.491.736l-.932.327-.736-4.808H65.184l.8,5.266a1.17,1.17,0,0,0-.442,1.21l.278,2.093c.114.785.442,1.243,1.292,1.243h1.734c2.159,0,3.156-.965,3.336-3.353l.474-6.46Zm8.6,8.422-.245-6c-.082-1.881-.932-2.42-2.175-2.42H74.472v1H75.5a1.882,1.882,0,0,0-.343,1L74.194-14.7h1.145l.981-7.948c.082-.638.213-.883.72-.883h.507c.736,0,1.128.311,1.177,1.5l.245,5.773c.016.376-.131.556-.523.556h-1.8v1h2.077c1.014,0,1.439-.425,1.406-1.39" transform="translate(5.301 25.823)"/></g></g><g transform="translate(38.996 -80.019)"><path class="d" d="M0-17.667V-37.394" transform="translate(0 37.394)"/></g><g class="b" transform="translate(0 -92.305)"><g transform="translate(38.996 1.268)"><path class="d" d="M0-20.719,9.671-30.39m13.294-5.83a7.634,7.634,0,0,1-7.634,7.634A7.634,7.634,0,0,1,7.7-36.22a7.634,7.634,0,0,1,7.635-7.634A7.634,7.634,0,0,1,22.965-36.22Z" transform="translate(0 43.854)"/></g><g transform="translate(21.6 0.791)"><path class="d" d="M-18.64-5.129A5.727,5.727,0,0,1-24.367.6a5.727,5.727,0,0,1-5.728-5.727,5.727,5.727,0,0,1,5.728-5.727A5.727,5.727,0,0,1-18.64-5.129Zm-7.8,14.717a6.505,6.505,0,0,1-6.505,6.505,6.505,6.505,0,0,1-6.505-6.505,6.505,6.505,0,0,1,6.505-6.505A6.505,6.505,0,0,1-26.444,9.588Z" transform="translate(39.454 10.856)"/></g><g transform="translate(29.818 47.904)"><path class="d" d="M-17.667,0H-37.394" transform="translate(37.394)"/></g></g></g></svg>