<svg xmlns="http://www.w3.org/2000/svg" width="172.341" height="177.341" viewBox="0 0 172.341 177.341"><defs><style>.a{fill:#ffb69f;}.b{fill:#bfe27f;}.c{fill:#503b2c;}.d{fill:#b34f33;}.e{fill:#efefef;}.f{fill:#afafaf;}.g{fill:#89b242;}.h{fill:#fa8905;}.i{fill:#f0ab0e;}</style></defs><g transform="translate(-125 -409.5)"><g transform="translate(83.289 418.473)"><path class="a" d="M183.457,87.359V91.8a6.042,6.042,0,0,0,3.762,5.586s4.81,1.953,4.81,1.959c-.007,11.756-9.266,17.682-18.567,17.75-9.92-.075-18.56-6.5-18.56-17.75l4.81-1.959a6.036,6.036,0,0,0,3.756-5.586V87.386c-5.062-1.9-11.818-9.817-11.818-19.4V54.158a3.7,3.7,0,0,1,4.313-3.653l31.044,5.157a9.886,9.886,0,0,1,8.266,9.756v2.565A21.662,21.662,0,0,1,183.457,87.359Z" transform="translate(-4.776 -10.898)"/><path class="b" d="M198.539,161.385s9,14.09,4.987,39.059h-57.2l-.925-38.569h3.531l-4.552-26.119a10.545,10.545,0,0,0-6.892-8.137L142.4,125.6l7.974-3.279c0,11.246,8.64,17.676,18.56,17.75,9.3-.068,18.56-5.994,18.567-17.75,11.1,4.553,7.091,2.9,15.478,6.368a9.829,9.829,0,0,1,6.1,8.967l.313,23.724H198.539Z" transform="translate(-0.249 -33.87)"/><path class="c" d="M199.426,48.5c0,14.478.027,22.118-7.824,34.718-2.143-4.572-11.818-5.953-11.818-5.953A21.662,21.662,0,0,0,191.6,57.884V55.319a9.886,9.886,0,0,0-8.266-9.756l-31.044-5.157a3.7,3.7,0,0,0-4.313,3.653V57.884c0,9.586,6.756,17.505,11.818,19.4,0,0-9.77,1.565-11.818,5.926-7.831-12.573-7.817-20.193-7.817-34.718a29.633,29.633,0,1,1,59.265,0Z" transform="translate(-1.103 -0.799)"/><path class="d" d="M149.621,168.891l.8,33.094h-4.089l-.925-38.57h3.531L144.383,137.3a10.545,10.545,0,0,0-6.892-8.137l4.912-2.021a14.676,14.676,0,0,1,6,9.457l5.11,29.307a1.361,1.361,0,0,1-1.34,1.595h-1.192A1.361,1.361,0,0,0,149.621,168.891Z" transform="translate(-0.249 -35.411)"/><path class="a" d="M231.075,218.919c-2.078-24.451-3.854-39.184-3.854-39.184v-.007h10.852c.122,9.423-.449,1.8,3.211,39.066h-9.076Z" transform="translate(-28.931 -52.221)"/><path class="e" d="M217.162,203.914a1.7,1.7,0,0,1-1.516-1.868q.117-1.126.2-2.215a1.7,1.7,0,1,1,3.392.259q-.086,1.136-.208,2.308A1.7,1.7,0,0,1,217.162,203.914Zm-1.284-9.025c-.221-15.694-.811-24.049-1.037-24.4-.442-.68-.259-1.362-.082-2.564.911-6.19.679-6.716.319-18.255a1.7,1.7,0,0,1,3.4-.107c.408,13.031.593,11.886-.461,19.606,1.267,2.2,1.057,11.044,1.263,25.668a1.7,1.7,0,0,1-3.4.048Z" transform="translate(-24.886 -42.053)"/><path d="M179.935,91.826a8.515,8.515,0,0,0,7.947-5.5,1.707,1.707,0,0,0-1-2.191,1.732,1.732,0,0,0-2.184,1,5.09,5.09,0,0,1-9.525,0,1.735,1.735,0,0,0-2.184-1,1.7,1.7,0,0,0-1.007,2.191A8.5,8.5,0,0,0,179.935,91.826Z" transform="translate(-11.24 -21.631)"/><path d="M169.695,68.239V66.955a1.7,1.7,0,0,0-3.4,0v1.285a1.7,1.7,0,0,0,3.4,0Z" transform="translate(-9.456 -15.63)"/><path d="M197.836,69.94a1.7,1.7,0,0,0,1.7-1.7V66.955a1.7,1.7,0,0,0-3.4,0v1.285A1.7,1.7,0,0,0,197.836,69.94Z" transform="translate(-18.995 -15.63)"/><path d="M182.915,77.546a1.7,1.7,0,0,0,1.7-1.7V69.985a1.7,1.7,0,0,0-3.4,0v5.861A1.7,1.7,0,0,0,182.915,77.546Z" transform="translate(-14.225 -16.598)"/><path d="M136.711,105.46a8.882,8.882,0,0,1,5.749,6.817l.225,1.3a1.7,1.7,0,0,0,3.354-.578l-.231-1.306a12.267,12.267,0,0,0-4.632-7.623l7.389-3.038c1.155,10.3,9.395,16.887,20.136,16.969,10.133-.074,18.99-6.32,20.125-16.969,7.833,3.211,5.9,2.416,13.261,5.459a8.123,8.123,0,0,1,5.041,7.416l.291,22h-7.191c.833-6.266.648-6.15.269-18.293a1.7,1.7,0,0,0-3.4.107c.389,12.472.559,11.744-.3,18.195-.171,1.291-.365,2.206.055,2.886,0,.005,0-.286,0-.281.086.137,1.487,14.472,3.777,38.654-.166,1.032,1.6,1.2,2.648,1.2.821,0-.7.392-.568-.444-.567-22.117-1.421-20.545-2.647-38.752l7.392.129c.051,7.02-.214,2.725,3.2,37.532a1.7,1.7,0,1,0,3.385-.332c-3.66-37.264-3-23.869-3.515-62.649a11.52,11.52,0,0,0-7.147-10.516c-6.627-2.739-12.957-5.347-20.3-8.332a4.364,4.364,0,0,1-2.7-4.009V87.581a23.525,23.525,0,0,0,11.818-20.4V64.617a11.547,11.547,0,0,0-9.688-11.435l-31.04-5.156a5.4,5.4,0,0,0-6.3,5.331V67.182c0,9.839,6.541,17.837,11.818,20.509V91a4.364,4.364,0,0,1-2.7,4.013s-2.948,1.193-17.133,7.028m11.422-34.859V53.358a2,2,0,0,1,2.334-1.976l31.045,5.157a8.157,8.157,0,0,1,6.843,8.078v2.565a20.111,20.111,0,1,1-40.222,0Zm7,30.981A7.694,7.694,0,0,0,160.394,91V89.215a22.883,22.883,0,0,0,16.587-.031V91a7.7,7.7,0,0,0,4.824,7.161l3.714,1.51c-.567,9.811-8.549,14.862-16.818,14.924-8.888-.067-16.307-5.686-16.837-14.917C154.081,98.785,153.506,99.019,155.576,98.164Z" transform="translate(0 -10.098)"/><path d="M149.165,154.711a1.7,1.7,0,1,0-1.966-1.388A1.7,1.7,0,0,0,149.165,154.711Z" transform="translate(-3.344 -43.144)"/><path d="M148.078,83.858a1.7,1.7,0,0,0,.544-2.343c-7.56-12.138-7.56-19.359-7.56-33.744V47.7a27.932,27.932,0,1,1,55.864.15c0,14.332,0,21.526-7.567,33.669a1.7,1.7,0,1,0,2.887,1.8C200.354,70.3,200.327,62.3,200.327,47.7c0-17.378-13.757-31.142-31.356-31.337A31.234,31.234,0,0,0,137.66,47.7v.076c0,14.558,0,22.578,8.074,35.542A1.7,1.7,0,0,0,148.078,83.858Z" transform="translate(-0.303)"/></g><g transform="translate(86.569 407.419)"><g transform="translate(40.171 3.822)"><path class="a" d="M140.677,54.916h-2.66v-11.4H85.362v11.4H82.7a7.578,7.578,0,0,0,0,15.157h3.07A26.239,26.239,0,0,0,97.211,87.48V99.128l-6.684,2.033a28.683,28.683,0,0,0,22.788,9.33,29.564,29.564,0,0,0,19.933-9.232l-7.1-2.13V87.466a26.124,26.124,0,0,0,11.467-17.392h3.063a7.579,7.579,0,0,0,0-15.158Z" transform="translate(-51.316 -16.409)"/><g transform="translate(3.391 134.211)"><path class="a" d="M62.245,197.349l-1.184,37.645H45.8l.912-37.645Z" transform="translate(-45.8 -197.349)"/></g><g transform="translate(101.406 134.211)"><path class="a" d="M203.018,234.994H187.764l-1.184-37.645h15.533Z" transform="translate(-186.58 -197.349)"/></g><g transform="translate(34.043 27.109)"><path class="f" d="M100.391,43.518l-10.565,14.9v-14.9Z" transform="translate(-89.826 -43.518)"/></g><g transform="translate(76.126 27.109)"><path class="f" d="M160.849,43.518v14.9l-10.579-14.9Z" transform="translate(-150.27 -43.518)"/></g><g transform="translate(0 84.751)"><path class="g" d="M142.336,175.769l1.184,37.645H59.582l1.184-37.645H40.93l5.549-31.846A12.87,12.87,0,0,1,55.4,133.835l24.744-7.526a28.683,28.683,0,0,0,22.788,9.33,29.564,29.564,0,0,0,19.933-9.232l24.842,7.429a12.87,12.87,0,0,1,8.919,10.088l5.549,31.846Z" transform="translate(-40.93 -126.309)"/></g><g transform="translate(34.043)"><path class="h" d="M124.5,4.581H107.812A17.986,17.986,0,0,0,89.826,22.567V31.69h52.662V22.567A17.987,17.987,0,0,0,124.5,4.581Z" transform="translate(-89.826 -4.581)"/><g transform="translate(-95.314 -4.322)"><path class="i" d="M124.082,4.581h-4.639c-3.394,0-6.146,8.477-6.146,18.933V31.43h16.931V23.514C130.228,13.058,127.477,4.581,124.082,4.581Z"/></g></g><g transform="translate(91.951 114.066)"><path class="e" d="M174.742,221.272l-.147-4.32a1.741,1.741,0,1,1,3.479-.119l.147,4.322a1.741,1.741,0,0,1-3.479.118Zm-.386-11.3L173,170.214a1.741,1.741,0,0,1,3.479-.118l1.356,39.762a1.741,1.741,0,1,1-3.479.118Z" transform="translate(-173 -168.415)"/></g></g><g transform="translate(38.431 2.081)"><path d="M131.822,78.712a1.771,1.771,0,0,0-2.242,1.017,6.453,6.453,0,0,1-12.08.007,1.77,1.77,0,0,0-2.235-1.023,1.74,1.74,0,0,0-1.023,2.235,9.793,9.793,0,0,0,3.572,4.637,9.952,9.952,0,0,0,11.446,0,9.833,9.833,0,0,0,3.579-4.63A1.748,1.748,0,0,0,131.822,78.712Z" transform="translate(-61.427 -25.327)"/><path d="M109.281,60.351a1.74,1.74,0,0,0-1.741,1.741v1.551a1.741,1.741,0,0,0,3.481,0V62.092A1.74,1.74,0,0,0,109.281,60.351Z" transform="translate(-59.424 -19.781)"/><path d="M146.219,63.641V62.091a1.741,1.741,0,0,0-3.481,0v1.551a1.741,1.741,0,1,0,3.481,0Z" transform="translate(-70.116 -19.781)"/><path d="M126.88,70.906a1.74,1.74,0,0,0,1.741-1.741V62.092a1.741,1.741,0,0,0-3.481,0v7.074A1.741,1.741,0,0,0,126.88,70.906Z" transform="translate(-64.77 -19.781)"/><path d="M45.259,238.839a1.755,1.755,0,0,0-1.782,1.7l-.167,7.018a1.738,1.738,0,1,0,3.474.084l.174-7.018A1.746,1.746,0,0,0,45.259,238.839Z" transform="translate(-39.913 -74)"/><path d="M45.572,228.849a1.738,1.738,0,1,0-.084,3.474h.042a1.737,1.737,0,0,0,.042-3.474Z" transform="translate(-40.059 -70.965)"/><path d="M113,24.889a1.743,1.743,0,0,0,.2-3.474,1.757,1.757,0,0,0-1.929,1.532v.007A1.739,1.739,0,0,0,113,24.889Z" transform="translate(-60.555 -7.951)"/><path d="M128.09,137.258a1.742,1.742,0,1,0,1.8,1.678A1.736,1.736,0,0,0,128.09,137.258Z" transform="translate(-65.158 -43.143)"/><path d="M163.126,137.734l-5.549-31.846a14.594,14.594,0,0,0-10.123-11.453l-30.711-9.19V75.789a27.988,27.988,0,0,0,11.151-16.563h1.639a9.319,9.319,0,0,0,0-18.638h-.917V32.671h14.353a1.741,1.741,0,1,0,0-3.481H128.616V21.808A19.749,19.749,0,0,0,108.888,2.081H92.2A19.749,19.749,0,0,0,72.473,21.808v18.78H71.55a9.319,9.319,0,0,0,0,18.638H73.2A28.181,28.181,0,0,0,84.326,75.8V85.25l-30.2,9.185a14.592,14.592,0,0,0-10.123,11.453l-5.549,31.846a1.741,1.741,0,0,0,1.713,2.04H42.69L42.329,154.7a1.751,1.751,0,0,0,1.7,1.782h.042a1.751,1.751,0,0,0,1.741-1.7l.363-15.011H58.21l-1.128,35.849a1.742,1.742,0,0,0,1.685,1.8h.056a1.73,1.73,0,0,0,1.741-1.685c.1-3.21,1.663-52.84,1.764-56.052a1.74,1.74,0,0,0-3.479-.109l-.526,16.719H42.239l5.194-29.806a11.089,11.089,0,0,1,7.714-8.724l23.728-7.22a31.211,31.211,0,0,0,15.261,8.473,1.768,1.768,0,0,0,2.075-1.323,1.739,1.739,0,0,0-1.323-2.075,27.4,27.4,0,0,1-12.142-6.249l3.828-1.164a1.74,1.74,0,0,0,1.234-1.665V77.919a27.835,27.835,0,0,0,25.454-.014V86.54a1.741,1.741,0,0,0,1.241,1.667l4.219,1.266a27.318,27.318,0,0,1-10.87,5.756,1.74,1.74,0,0,0-1.232,2.13,1.761,1.761,0,0,0,2.124,1.232h.007a30.884,30.884,0,0,0,13.862-7.951l23.832,7.129a11.073,11.073,0,0,1,7.707,8.717l5.194,29.806H143.261l-.519-16.509a1.74,1.74,0,0,0-3.479.109l.572,18.2c0,.006,0,.012,0,.018l1.183,37.623a1.73,1.73,0,0,0,1.741,1.685h.056a1.742,1.742,0,0,0,1.685-1.8l-1.128-35.849H155.41l.862,35.945a1.741,1.741,0,0,0,1.74,1.7h.042a1.741,1.741,0,0,0,1.7-1.782l-.86-35.862h2.52A1.739,1.739,0,0,0,163.126,137.734ZM125.132,40.367l-5.465-7.7h5.465Zm4.4,3.7a5.838,5.838,0,0,1,0,11.676h-1.058c.07-.7.139-1.839.139-2.848,0-6.678,0-8.014,0-8.828Zm-4.4-22.261V29.19H112.273V22.939c0-5.458-.929-12.846-3.824-17.377h.44A16.265,16.265,0,0,1,125.135,21.808Zm-49.181,0A16.264,16.264,0,0,1,92.2,5.562h.435a19.171,19.171,0,0,0-1.981,4.371,1.736,1.736,0,0,0,1.114,2.193,1.766,1.766,0,0,0,2.193-1.114,13.833,13.833,0,0,1,2.124-4.3c.771-.942,1.343-1.149,1.693-1.154h5.52a2.281,2.281,0,0,1,1.512.925c1.97,2.089,4.038,8.571,3.982,16.452V29.19H92.3V24.227a1.741,1.741,0,0,0-3.481-.007v4.97H75.955V21.808Zm0,10.863H81.41l-5.453,7.689ZM71.55,55.745a5.838,5.838,0,0,1,0-11.676h.923s0,1.432,0,8.828c0,.975.058,2.055.138,2.848ZM75.957,52.9v-6.52l9.721-13.707H115.4l9.734,13.709V52.9a24.587,24.587,0,1,1-49.175,0Z" transform="translate(-38.431 -2.081)"/></g></g></g></svg>